solid OpenSCAD_Model
  facet normal -1 0 0
    outer loop
      vertex 0 0 0
      vertex 0 5 36.2
      vertex 0 5 0
    endloop
  endfacet
  facet normal -1 -0 0
    outer loop
      vertex 0 5 36.2
      vertex 0 0 0
      vertex 0 0 36.2
    endloop
  endfacet
  facet normal -0 0 1
    outer loop
      vertex 0 5 36.2
      vertex 30 0 36.2
      vertex 30 5 36.2
    endloop
  endfacet
  facet normal 0 0 1
    outer loop
      vertex 30 0 36.2
      vertex 0 5 36.2
      vertex 0 0 36.2
    endloop
  endfacet
  facet normal 1 -0 0
    outer loop
      vertex 30 0 36.2
      vertex 30 5 0
      vertex 30 5 36.2
    endloop
  endfacet
  facet normal 1 0 0
    outer loop
      vertex 30 5 0
      vertex 30 0 36.2
      vertex 30 0 0
    endloop
  endfacet
  facet normal 0 0 -1
    outer loop
      vertex 0 0 0
      vertex 30 5 0
      vertex 30 0 0
    endloop
  endfacet
  facet normal -0 0 -1
    outer loop
      vertex 30 5 0
      vertex 0 0 0
      vertex 0 5 0
    endloop
  endfacet
  facet normal 0 -1 0
    outer loop
      vertex 0 0 0
      vertex 30 0 36.2
      vertex 0 0 36.2
    endloop
  endfacet
  facet normal 0 -1 -0
    outer loop
      vertex 30 0 36.2
      vertex 0 0 0
      vertex 30 0 0
    endloop
  endfacet
  facet normal 0 1 0
    outer loop
      vertex 30 5 36.2
      vertex 16.5 5 29.2
      vertex 0 5 36.2
    endloop
  endfacet
  facet normal 0 1 0
    outer loop
      vertex 30 5 36.2
      vertex 16.5 5 26.2
      vertex 16.5 5 29.2
    endloop
  endfacet
  facet normal 0 1 0
    outer loop
      vertex 16.5 5 26.2
      vertex 30 5 0
      vertex 13.5 5 26.2
    endloop
  endfacet
  facet normal 0 1 -0
    outer loop
      vertex 30 5 0
      vertex 16.5 5 26.2
      vertex 30 5 36.2
    endloop
  endfacet
  facet normal 0 1 -0
    outer loop
      vertex 13.5 5 29.2
      vertex 0 5 36.2
      vertex 16.5 5 29.2
    endloop
  endfacet
  facet normal 0 1 -0
    outer loop
      vertex 13.5 5 26.2
      vertex 0 5 36.2
      vertex 13.5 5 29.2
    endloop
  endfacet
  facet normal 0 1 0
    outer loop
      vertex 0 5 0
      vertex 13.5 5 26.2
      vertex 30 5 0
    endloop
  endfacet
  facet normal 0 1 0
    outer loop
      vertex 13.5 5 26.2
      vertex 0 5 0
      vertex 0 5 36.2
    endloop
  endfacet
  facet normal -1 0 0
    outer loop
      vertex 13.5 5 26.2
      vertex 13.5 10 29.2
      vertex 13.5 10 26.2
    endloop
  endfacet
  facet normal -1 -0 0
    outer loop
      vertex 13.5 10 29.2
      vertex 13.5 5 26.2
      vertex 13.5 5 29.2
    endloop
  endfacet
  facet normal -0 0 1
    outer loop
      vertex 13.5 10 29.2
      vertex 16.5 5 29.2
      vertex 16.5 10 29.2
    endloop
  endfacet
  facet normal 0 0 1
    outer loop
      vertex 16.5 5 29.2
      vertex 13.5 10 29.2
      vertex 13.5 5 29.2
    endloop
  endfacet
  facet normal 1 -0 0
    outer loop
      vertex 16.5 5 29.2
      vertex 16.5 10 26.2
      vertex 16.5 10 29.2
    endloop
  endfacet
  facet normal 1 0 0
    outer loop
      vertex 16.5 10 26.2
      vertex 16.5 5 29.2
      vertex 16.5 5 26.2
    endloop
  endfacet
  facet normal 0 1 -0
    outer loop
      vertex 16.5 10 26.2
      vertex 13.5 10 29.2
      vertex 16.5 10 29.2
    endloop
  endfacet
  facet normal 0 1 0
    outer loop
      vertex 13.5 10 29.2
      vertex 16.5 10 26.2
      vertex 13.5 10 26.2
    endloop
  endfacet
  facet normal 0 0 -1
    outer loop
      vertex 13.5 5 26.2
      vertex 16.5 10 26.2
      vertex 16.5 5 26.2
    endloop
  endfacet
  facet normal -0 0 -1
    outer loop
      vertex 16.5 10 26.2
      vertex 13.5 5 26.2
      vertex 13.5 10 26.2
    endloop
  endfacet
endsolid OpenSCAD_Model
